<svg id="Layer_1" data-name="Layer 1" xmlns="http://www.w3.org/2000/svg" viewBox="0 0 82 82"><defs><style>.cls-1{fill:#d3a65e;}</style></defs><title>Artboard 14 copy 7</title><path class="cls-1" d="M10.94,12.75H70.6A10.23,10.23,0,0,1,81,23.15V58.85a10.23,10.23,0,0,1-10.4,10.4H10.94A10.14,10.14,0,0,1,1,58.85V23.15A10.14,10.14,0,0,1,10.94,12.75ZM5.52,61.11,21.34,45.29c1.81-1.81,5,1.36,3.16,3.16L8.68,64.28a4.07,4.07,0,0,0,2.26.45H70.6a3.39,3.39,0,0,0,2.26-.45L57.5,48.46c-2.26-1.81.9-5,3.16-3.16L76,61.11a19.58,19.58,0,0,0,.45-2.26V23.15L49.36,45.75a13.57,13.57,0,0,1-16.72,0L5.52,23.15v38ZM7.33,18.63l28,23.5a9.53,9.53,0,0,0,10.85,0l28.47-23.5a7.29,7.29,0,0,0-4.07-1.36H10.94A5.13,5.13,0,0,0,7.33,18.63Z"/></svg>