<svg id="Layer_1" data-name="Layer 1" xmlns="http://www.w3.org/2000/svg" viewBox="0 0 44 36"><defs><style>.cls-1{fill:#d3a65e;}</style></defs><title>Artboard 1 copy 3</title><path class="cls-1" d="M44,22.06H32.68V8.91h0A11.32,11.32,0,0,1,44,20.23Z"/><rect class="cls-1" y="8.91" width="31.59" height="13.15"/><rect class="cls-1" y="22.97" width="44" height="1.75"/><path class="cls-1" d="M41,24.47a2.62,2.62,0,0,1-5.25,0"/><path class="cls-1" d="M28.62,24.47a2.62,2.62,0,0,1-5.25,0"/><path class="cls-1" d="M23.29,24.47a2.62,2.62,0,0,1-5.25,0"/><path class="cls-1" d="M11.57,24.47a2.62,2.62,0,1,1-5.25,0"/><path class="cls-1" d="M6.24,24.47a2.62,2.62,0,1,1-5.25,0"/></svg>