<svg id="Layer_1" data-name="Layer 1" xmlns="http://www.w3.org/2000/svg" viewBox="0 0 42 36"><defs><style>.cls-1{fill:#d3a65e;}</style></defs><title>Artboard 1 copy 5</title><path class="cls-1" d="M42,18c0-3.28-8.32-3.71-14-3.76L17.1.55a.83.83,0,0,0-.67-.31H14.19a.38.38,0,0,0-.36.51l2.51,7.68H15.26a.44.44,0,0,0-.41.41v.72a.44.44,0,0,0,.41.41h1.59l1.54,4.71c-4.71.41-9.7,1-12.59,1.38L1.62,11.94A.83.83,0,0,0,1,11.63H.29A.29.29,0,0,0,0,12L1.8,18,0,24a.29.29,0,0,0,.28.38H1a1,1,0,0,0,.67-.31l4.17-4.12c2.89.33,7.91.95,12.59,1.38L16.85,26H15.26a.44.44,0,0,0-.41.41v.72a.44.44,0,0,0,.41.41h1.07l-2.51,7.68a.36.36,0,0,0,.36.51h2.25a1,1,0,0,0,.67-.31L28,21.73C33.63,21.73,42,21.3,42,18Z"/></svg>