<svg id="Layer_1" data-name="Layer 1" xmlns="http://www.w3.org/2000/svg" xmlns:xlink="http://www.w3.org/1999/xlink" viewBox="0 0 172.68 172"><defs><style>.cls-1,.cls-2,.cls-4{fill-rule:evenodd;}.cls-1{fill:url(#linear-gradient);}.cls-2{fill:url(#linear-gradient-2);}.cls-3,.cls-4{fill:#d3a65e;}.cls-5{fill:#01687e;}</style><linearGradient id="linear-gradient" x1="43.17" y1="149.82" x2="157.65" y2="43.87" gradientUnits="userSpaceOnUse"><stop offset="0" stop-color="#074552"/><stop offset="0.11" stop-color="#074552" stop-opacity="0.8"/><stop offset="0.34" stop-color="#074552" stop-opacity="0.45"/><stop offset="0.56" stop-color="#074552" stop-opacity="0.2"/><stop offset="0.78" stop-color="#074552" stop-opacity="0.05"/><stop offset="1" stop-color="#074552" stop-opacity="0"/></linearGradient><linearGradient id="linear-gradient-2" x1="50.34" y1="167.65" x2="165.36" y2="61.21" xlink:href="#linear-gradient"/></defs><title>Artboard 11 copy</title><path class="cls-1" d="M163.72,112c-11.54,23.4-49.56,35.89-84.93,27.9s-54.7-33.44-43.16-56.85,49.56-35.89,84.93-27.9S175.26,88.6,163.72,112Z"/><path class="cls-2" d="M74.93,147.72a93.93,93.93,0,0,1-31-12.78A172.56,172.56,0,0,0,64.3,169.28a347.93,347.93,0,0,0,46.79-19.16A118.15,118.15,0,0,1,74.93,147.72Z"/><circle class="cls-3" cx="64" cy="64.5" r="62"/><path class="cls-4" d="M64,137.95a73.12,73.12,0,0,1-32.53-7.59A275.57,275.57,0,0,0,64,169.5a275.58,275.58,0,0,0,32.53-39.14A73.12,73.12,0,0,1,64,137.95Z"/><path class="cls-5" d="M104.07,71.89H83.45v-24h9.3a11.32,11.32,0,0,1,11.32,11.32Z"/><rect class="cls-5" x="23.93" y="47.94" width="57.54" height="23.96"/><rect class="cls-5" x="23.93" y="73.56" width="80.15" height="3.18"/><path class="cls-5" d="M98.69,76.29a4.78,4.78,0,1,1-9.56,0"/><path class="cls-5" d="M76.06,76.29a4.78,4.78,0,1,1-9.56,0"/><path class="cls-5" d="M66.36,76.29a4.78,4.78,0,1,1-9.56,0"/><path class="cls-5" d="M45,76.29a4.78,4.78,0,1,1-9.56,0"/><path class="cls-5" d="M35.29,76.29a4.78,4.78,0,1,1-9.56,0"/></svg>