<svg id="Layer_1" data-name="Layer 1" xmlns="http://www.w3.org/2000/svg" xmlns:xlink="http://www.w3.org/1999/xlink" viewBox="0 0 172.68 172"><defs><style>.cls-1,.cls-2,.cls-4{fill-rule:evenodd;}.cls-1{fill:url(#linear-gradient);}.cls-2{fill:url(#linear-gradient-2);}.cls-3,.cls-4{fill:#d3a65e;}.cls-5{fill:#01687e;}</style><linearGradient id="linear-gradient" x1="43.17" y1="149.82" x2="157.65" y2="43.87" gradientUnits="userSpaceOnUse"><stop offset="0" stop-color="#074552"/><stop offset="0.11" stop-color="#074552" stop-opacity="0.8"/><stop offset="0.34" stop-color="#074552" stop-opacity="0.45"/><stop offset="0.56" stop-color="#074552" stop-opacity="0.2"/><stop offset="0.78" stop-color="#074552" stop-opacity="0.05"/><stop offset="1" stop-color="#074552" stop-opacity="0"/></linearGradient><linearGradient id="linear-gradient-2" x1="50.34" y1="167.65" x2="165.36" y2="61.21" xlink:href="#linear-gradient"/></defs><title>Artboard 11</title><path class="cls-1" d="M163.72,112c-11.54,23.4-49.56,35.89-84.93,27.9s-54.7-33.44-43.16-56.85,49.56-35.89,84.93-27.9S175.26,88.6,163.72,112Z"/><path class="cls-2" d="M74.93,147.72a93.93,93.93,0,0,1-31-12.78A172.56,172.56,0,0,0,64.3,169.28a347.93,347.93,0,0,0,46.79-19.16A118.15,118.15,0,0,1,74.93,147.72Z"/><circle class="cls-3" cx="64" cy="64.5" r="62"/><path class="cls-4" d="M64,137.95a73.12,73.12,0,0,1-32.53-7.59A275.57,275.57,0,0,0,64,169.5a275.58,275.58,0,0,0,32.53-39.14A73.12,73.12,0,0,1,64,137.95Z"/><path class="cls-5" d="M102.74,64.55c0-6.08-15.45-6.89-26.09-7L56.49,32.09a1.53,1.53,0,0,0-1.24-.57H51.08a.7.7,0,0,0-.67,1l4.66,14.26h-2a.82.82,0,0,0-.76.76v1.33a.82.82,0,0,0,.76.76H56l2.85,8.74c-8.74.76-18,1.95-23.38,2.57l-7.75-7.65a1.53,1.53,0,0,0-1.24-.57H25.27a.54.54,0,0,0-.52.71L28.07,64.5,24.75,75.62a.54.54,0,0,0,.52.71H26.5a1.77,1.77,0,0,0,1.24-.57l7.75-7.65c5.37.62,14.69,1.76,23.38,2.57L56,79.43H53.07a.82.82,0,0,0-.76.76v1.33a.82.82,0,0,0,.76.76h2L50.41,96.54a.67.67,0,0,0,.67,1h4.18a1.77,1.77,0,0,0,1.24-.57L76.65,71.44C87.2,71.44,102.74,70.63,102.74,64.55Z"/></svg>