<svg id="Layer_1" data-name="Layer 1" xmlns="http://www.w3.org/2000/svg" viewBox="0 0 42 36"><defs><style>.cls-1{fill:#01687e;}.cls-2{fill:#d3a65e;}</style></defs><title>Artboard 1 copy 2</title><path class="cls-1" d="M14.35,35.26,17,27.07H15.35v-.54h1.86l1.84-5.65-.62-.06c-3.82-.35-7.84-.83-10.78-1.17l-2-.24L1.27,23.71a.49.49,0,0,1-.31.16H.57L2.32,18,.57,12.13H1a.33.33,0,0,1,.26.11l4.39,4.34,2.46-.29c2.83-.34,6.7-.8,10.35-1.12l.63-.05L17.21,9.46H15.35V8.93H17L14.35.74h2.09a.33.33,0,0,1,.27.11l11,13.91h.24c11.2.1,13.55,1.83,13.55,3.26,0,1.2-1.76,3.21-13.55,3.21h-.24l-11,13.9a.48.48,0,0,1-.27.12Z"/><path class="cls-2" d="M16.38,1.24,27.17,14.88l.3.38h.48C31,15.29,41,15.57,41,18c0,.86-1.49,1.62-4.08,2.1a51.25,51.25,0,0,1-9,.61h-.48l-.3.38L16.38,34.76H15l2.25-6.88.28-.85h0l.23-.69,1.54-4.71.39-1.19-1.25-.12c-3.79-.35-7.79-.82-10.72-1.16L5.91,19l-.48-.05-.34.34L1.38,22.9l1.38-4.61L2.85,18l-.09-.29L1.38,13.1l3.71,3.67.34.34L5.91,17l2.23-.26c2.82-.34,6.69-.8,10.33-1.12l1.25-.11-.39-1.2L17.8,9.65,17.57,9h0l-.28-.85L15,1.24h1.34m.06-1H14.19a.38.38,0,0,0-.36.51l2.51,7.68H15.26a.44.44,0,0,0-.41.41v.72a.44.44,0,0,0,.41.41h1.59l1.54,4.71c-4.71.41-9.7,1-12.59,1.38L1.62,11.94A.83.83,0,0,0,1,11.63H.29A.29.29,0,0,0,0,12L1.8,18,0,24a.29.29,0,0,0,.28.38H1a1,1,0,0,0,.67-.31l4.17-4.12c2.89.33,7.91.95,12.59,1.38L16.85,26H15.26a.44.44,0,0,0-.41.41v.72a.44.44,0,0,0,.41.41h1.07l-2.51,7.68a.36.36,0,0,0,.32.51h2.29a1,1,0,0,0,.67-.31L28,21.73c5.68,0,14-.43,14-3.71s-8.32-3.71-14-3.76L17.1.55a.83.83,0,0,0-.67-.31Z"/></svg>