<svg id="Layer_1" data-name="Layer 1" xmlns="http://www.w3.org/2000/svg" viewBox="0 0 42 36"><defs><style>.cls-1{fill:#01687e;}.cls-2{fill:#d3a65e;}</style></defs><title>Artboard 1 copy</title><path class="cls-1" d="M6.08,27.95l-5.17-8H3.19V16.46H5.61V8.05h.53v8.41H19.39v.27H15.82V19.9H29.5V17.74H41.08L34.53,27.95Zm27.84-7.61a1.59,1.59,0,1,0,1.59,1.59A1.6,1.6,0,0,0,33.92,20.34Z"/><path class="cls-2" d="M15.32,17V20.4H30V18.24H40.17l-5.92,9.21H6.36l-4.53-7H3.69V17H15.32M33.92,24a2.09,2.09,0,1,0-2.09-2.09A2.1,2.1,0,0,0,33.92,24M6.64,7.55H5.11V16H2.69V19.4H0l5.81,9h29L42,17.24H29V19.4H16.32V17.24h3.57V16H6.64V7.55ZM33.92,23A1.09,1.09,0,1,1,35,21.93,1.09,1.09,0,0,1,33.92,23Z"/></svg>