<svg id="Layer_1" data-name="Layer 1" xmlns="http://www.w3.org/2000/svg" viewBox="0 0 44 36"><defs><style>.cls-1,.cls-3{fill:#01687e;}.cls-2{fill:#d3a65e;}.cls-3{stroke:#d3a65e;stroke-miterlimit:10;}</style></defs><title>Artboard 1</title><path class="cls-1" d="M33.18,21.56V9.42A10.83,10.83,0,0,1,43.5,20.23v1.33Z"/><path class="cls-2" d="M33.68,10A10.34,10.34,0,0,1,43,20.23v.83H33.68V10m-1-1V22.06H44V20.23A11.32,11.32,0,0,0,32.68,8.9Z"/><rect class="cls-1" x="0.5" y="9.41" width="30.59" height="12.15"/><path class="cls-2" d="M30.59,9.9V21.06H1V9.9H30.59m1-1H0V22.06H31.59V8.9Z"/><rect class="cls-1" x="0.5" y="23.47" width="43" height="0.75"/><polygon class="cls-2" points="44 22.97 0 22.97 0 24.72 44 24.72 44 22.97 44 22.97"/><path class="cls-3" d="M41,24.47a2.62,2.62,0,0,1-5.25,0"/><path class="cls-3" d="M28.62,24.47a2.62,2.62,0,0,1-5.25,0"/><path class="cls-3" d="M23.29,24.47a2.62,2.62,0,0,1-5.25,0"/><path class="cls-3" d="M11.57,24.47a2.62,2.62,0,1,1-5.25,0"/><path class="cls-3" d="M6.24,24.47a2.62,2.62,0,1,1-5.25,0"/></svg>