<svg id="Layer_1" data-name="Layer 1" xmlns="http://www.w3.org/2000/svg" viewBox="0 0 108 108"><defs><style>.cls-1{fill:#d3a65e;}</style></defs><title>Artboard 14 copy</title><path class="cls-1" d="M80.43,68.29H62.22a6.32,6.32,0,1,1,0-12.64H76.69a2.19,2.19,0,0,0,1,.25,1.53,1.53,0,0,0,1.52-.76c1.26-1.77,13.15-17.45,13.15-25A14.67,14.67,0,0,0,63,30.1c0,5.8,6.94,16.32,10.78,21.75H62.22a10.12,10.12,0,0,0,0,20.23H80.43a8.35,8.35,0,1,1,0,16.69H33.81c3.8-5.35,11-16.11,11-22a14.67,14.67,0,0,0-29.34,0c0,7.59,11.89,23.27,13.15,25a1.8,1.8,0,0,0,1.52.76H80.43a12.14,12.14,0,1,0,0-24.28ZM77.65,19.23c6.07,0,11.13,5.06,10.87,10.87,0,4.8-6.83,15.17-10.87,20.74-4-5.56-10.87-16.18-10.87-20.74A10.79,10.79,0,0,1,77.65,19.23ZM19.23,67A10.87,10.87,0,1,1,41,67c0,4.8-6.83,15.17-10.87,20.74C26.06,82.2,19.23,71.58,19.23,67Z"/><path class="cls-1" d="M84,30.35a6.32,6.32,0,1,0-6.32,6.32A6.42,6.42,0,0,0,84,30.35Zm-8.85,0a2.53,2.53,0,0,1,2.53-2.53,2.39,2.39,0,0,1,2.53,2.53,2.53,2.53,0,1,1-5.06,0Z"/><path class="cls-1" d="M36.42,67a6.32,6.32,0,1,0-6.32,6.32A6.42,6.42,0,0,0,36.42,67Zm-8.85,0a2.53,2.53,0,1,1,2.53,2.53A2.53,2.53,0,0,1,27.57,67Z"/></svg>