<svg id="Layer_1" data-name="Layer 1" xmlns="http://www.w3.org/2000/svg" viewBox="0 0 108 108"><defs><style>.cls-1{fill:#d3a65e;}</style></defs><title>Artboard 14 copy 3</title><path class="cls-1" d="M88.32,30.43h0V17.53A4.25,4.25,0,0,0,84,13.29H37a4.35,4.35,0,0,0-4.32,4.27l-.07,4.3H24a4.31,4.31,0,0,0-4.29,4.31v4.27h0A8.55,8.55,0,0,0,11.15,39V86.18a8.54,8.54,0,0,0,8.53,8.54H88.32a8.55,8.55,0,0,0,8.53-8.54V39A8.54,8.54,0,0,0,88.32,30.43ZM37,17.63l47-.05V30.43H75.43V26.16a4.26,4.26,0,0,0-4.29-4.31H36.89ZM24,26.16H35.65l1.18,0v0H71.14v4.29H24ZM92.57,69h-15a6.43,6.43,0,1,1,0-12.86h15Zm-15-17.14a10.71,10.71,0,1,0,0,21.43h15V86.18a4.27,4.27,0,0,1-4.25,4.25H19.68a4.25,4.25,0,0,1-4.25-4.25V39a4.27,4.27,0,0,1,4.25-4.25H88.32A4.25,4.25,0,0,1,92.57,39V51.86Z"/></svg>