<svg id="Layer_1" data-name="Layer 1" xmlns="http://www.w3.org/2000/svg" viewBox="0 0 108 108"><defs><style>.cls-1{fill:#d3a65e;}</style></defs><title>Artboard 14 copy 2</title><path class="cls-1" d="M82.57,91V10.31a1.68,1.68,0,0,0-1.68-1.68H20.39a1.68,1.68,0,0,0-1.68,1.68V91a1.68,1.68,0,0,0,1.68,1.68h60.5A1.68,1.68,0,0,0,82.57,91Zm-3.36-1.68H22.07V12H79.21Z"/><path class="cls-1" d="M87.61,15.35A1.68,1.68,0,0,0,85.93,17V96H23.75a1.68,1.68,0,1,0,0,3.36H87.61a1.68,1.68,0,0,0,1.68-1.68V17A1.68,1.68,0,0,0,87.61,15.35Z"/><path class="cls-1" d="M60.72,34.8v9.11a1.68,1.68,0,1,0,3.36,0v3.36a1.68,1.68,0,1,0,3.36,0V34.8a8.4,8.4,0,1,0-6.72,0Zm3.36-12.73a5,5,0,1,1-5,5A5,5,0,0,1,64.08,22.07Z"/><path class="cls-1" d="M30.47,25.43h16.8a1.68,1.68,0,0,0,0-3.36H30.47a1.68,1.68,0,0,0,0,3.36Z"/><path class="cls-1" d="M30.47,32.15h16.8a1.68,1.68,0,1,0,0-3.36H30.47a1.68,1.68,0,0,0,0,3.36Z"/><path class="cls-1" d="M30.47,38.88h16.8a1.68,1.68,0,1,0,0-3.36H30.47a1.68,1.68,0,0,0,0,3.36Z"/><path class="cls-1" d="M30.47,59H70.8a1.68,1.68,0,0,0,0-3.36H30.47a1.68,1.68,0,0,0,0,3.36Z"/><path class="cls-1" d="M30.47,65.76H70.8a1.68,1.68,0,0,0,0-3.36H30.47a1.68,1.68,0,0,0,0,3.36Z"/><path class="cls-1" d="M60.72,79.21H40.56a1.68,1.68,0,1,0,0,3.36H60.72a1.68,1.68,0,0,0,0-3.36Z"/><path class="cls-1" d="M43,78.26a4.2,4.2,0,0,0,2.65-1.31,2.92,2.92,0,0,0,.75.46,2.78,2.78,0,0,0,3.42-.94,1.79,1.79,0,0,0,.45,0c.39-.08.75-.19,1.12-.3l.2-.06a4.6,4.6,0,0,0,1.54.73,2.48,2.48,0,0,1,.68.28,1.68,1.68,0,0,0,2.94-1.63,4.1,4.1,0,0,0-2.62-1.86l-.3-.1a1.67,1.67,0,0,0-1.73-1,7.47,7.47,0,0,0-.9.17,1.68,1.68,0,0,0-3-.08c-.09.15-.18.35-.29.56l-.07.14A1.68,1.68,0,0,0,45,72.69l-.36.42a12.86,12.86,0,0,1-1.68,1.72,1.68,1.68,0,0,0-1.13,3.11A2.28,2.28,0,0,0,43,78.26Z"/></svg>