<svg id="Layer_1" data-name="Layer 1" xmlns="http://www.w3.org/2000/svg" viewBox="0 0 108 108"><defs><style>.cls-1{fill:#d3a65e;}</style></defs><title>Artboard 14</title><path class="cls-1" d="M73.41,22.3H70.32v56h-.05s0-.08,0-.12A9.46,9.46,0,0,0,69.94,77l-.08-.21a9.43,9.43,0,0,0-.39-1l-.15-.31a9.52,9.52,0,0,0-.6-1l-.15-.2a9.57,9.57,0,0,0-.65-.8l-.11-.14v-11L46.14,29.39H11.62v6.92H5.24V75.52h6.38v5.87h6.57a9.48,9.48,0,0,0,2.38,4.88H11.89v3.09H78.65V86.28H67.87a9.48,9.48,0,0,0,2.38-4.88h30.67V78.3H73.41ZM8.33,72.43v-33h3.29v33Zm6.38,3.09v-43H44.47L64.72,63.26v7.88l-.06,0-.53-.21-.37-.14-.5-.14-.43-.11-.58-.09-.38-.06a9.59,9.59,0,0,0-1-.05h0c-.31,0-.62,0-.93,0l-.28,0-.62.09-.33.08-.55.14-.33.11-.51.19-.33.14-.48.23-.31.17-.46.28-.28.18-.45.34-.25.19c-.16.13-.31.28-.46.42l-.18.17A9.59,9.59,0,0,0,53,74.5l-.15.24c-.11.17-.21.33-.31.51l-.16.3c-.08.16-.16.32-.23.48l-.14.34c-.06.16-.12.32-.18.49s-.08.24-.11.37-.09.33-.13.5-.06.25-.08.38,0,.13,0,.2H37c0-.06,0-.12,0-.18s-.06-.28-.09-.42-.07-.3-.11-.44-.08-.28-.13-.43-.1-.27-.15-.41-.11-.28-.17-.42-.12-.25-.18-.38-.14-.28-.21-.41l-.21-.34c-.08-.14-.16-.27-.25-.4l-.2-.27a9.58,9.58,0,0,0-.65-.79l-.22-.24L34,72.85l-.29-.26-.36-.28L33,72.05l-.37-.25-.37-.22-.38-.21-.4-.2L31.09,71l-.45-.16-.39-.13-.5-.13-.37-.09-.59-.09-.31,0c-.3,0-.61,0-.93,0s-.62,0-.93,0l-.3,0-.6.09-.35.08-.53.14-.36.12L24,71l-.35.15-.45.22-.34.18-.43.26-.32.21-.4.3-.29.23-.39.36-.25.23c-.16.16-.32.34-.47.51L20.1,74c-.13.17-.27.34-.39.52l-.2.32c-.09.14-.18.28-.26.42s-.12.24-.19.36-.14.28-.21.43-.11.26-.16.39-.11.29-.16.44-.09.27-.12.41-.08.3-.12.46-.06.28-.09.42,0,.12,0,.18H14.71ZM37,81.39H51.48a9.48,9.48,0,0,0,2.38,4.88H34.57A9.48,9.48,0,0,0,37,81.39ZM21.14,79.85a6.43,6.43,0,1,1,6.43,6.43A6.44,6.44,0,0,1,21.14,79.85Zm33.29,0a6.43,6.43,0,1,1,6.44,6.43A6.44,6.44,0,0,1,54.44,79.85Z"/><path class="cls-1" d="M44,37.5H18.05V59.31H58ZM21.14,40.59H42.3L52.37,56.22H21.14Z"/><rect class="cls-1" x="18.5" y="61.8" width="11.62" height="3.09"/><path class="cls-1" d="M27.57,75.75a4.1,4.1,0,1,0,4.1,4.1A4.1,4.1,0,0,0,27.57,75.75Zm0,5.1a1,1,0,1,1,1-1A1,1,0,0,1,27.57,80.85Z"/><path class="cls-1" d="M60.87,75.75a4.1,4.1,0,1,0,4.1,4.1A4.1,4.1,0,0,0,60.87,75.75Zm0,5.1a1,1,0,1,1,1-1A1,1,0,0,1,60.87,80.85Z"/><path class="cls-1" d="M75,77h27.58V59.77H75Zm16.89-8.6L99.49,64v8.75Zm3.37,5.51H82.33l6.47-3.72Zm-6.47-7.3-6.47-3.72H95.26Zm-3.1,1.79-7.6,4.38V64Z"/><path class="cls-1" d="M75,58.11h27.58V40.92H75Zm16.9-8.6,7.59-4.38v8.76ZM95.26,55H82.35L88.8,51.3ZM88.8,47.73,82.33,44H95.26Zm-3.1,1.79-7.61,4.39V45.13Z"/><path class="cls-1" d="M75,22.07v17.2h27.58V22.07Zm10.7,8.6L78.09,35V26.28Zm-3.36-5.51H95.24l-6.45,3.72Zm6.46,7.29,6.47,3.73H82.33Zm3.1-1.79,7.6-4.38V35Z"/><rect class="cls-1" x="83.37" y="86.28" width="6.48" height="3.09"/></svg>