<svg id="Layer_1" data-name="Layer 1" xmlns="http://www.w3.org/2000/svg" viewBox="0 0 108 108"><defs><style>.cls-1{fill:#d3a65e;}</style></defs><title>Artboard 14 copy 5</title><path class="cls-1" d="M54.18,13.82a13.23,13.23,0,0,1,9.22,4.77,5.93,5.93,0,0,0,5,2.27q6.09-.35,12.18-.77c1.58-.11,3.16-.39,4.74-.4,3.54,0,6.21,2.79,6.33,6.53a6.76,6.76,0,0,1-5.93,6.85,7,7,0,0,1-5.49-1.76,2.72,2.72,0,0,0-2.41-.64c-7.94,1.49-15.87,3-23.82,4.44C48,36.17,42,37,36.06,37.93l-6.44,1a2.65,2.65,0,0,0-2,1.39,6.75,6.75,0,0,1-12.53-2.76,6.62,6.62,0,0,1,3.78-6.77,19.53,19.53,0,0,1,4-.89,89.66,89.66,0,0,0,12.72-3.47,6.45,6.45,0,0,0,4-3.82C41.89,17.13,46.86,13.83,54.18,13.82ZM53,17.59a10.54,10.54,0,0,0-9.86,6.5,9.84,9.84,0,0,1-6.07,5.83c-1.08.38-2.13.86-3.23,1.13-4.21,1.05-8.44,2.06-12.66,3a2.76,2.76,0,0,0-2.3,2.23,2.82,2.82,0,0,0,1.49,3.09,2.71,2.71,0,0,0,3.16-.48,4.39,4.39,0,0,0,.69-.83A6.62,6.62,0,0,1,28.94,35c3.22-.5,6.45-1,9.67-1.45,5-.74,10-1.36,15-2.25,8-1.43,15.87-3,23.8-4.57a6.82,6.82,0,0,1,5.74,1.38,3.48,3.48,0,0,0,1.16.64,2.7,2.7,0,0,0,3-.69A2.77,2.77,0,0,0,87.74,25a2.44,2.44,0,0,0-2.6-1.44c-1,0-2,.18-3,.25-4.25.3-8.51.66-12.77.86a10.43,10.43,0,0,1-8.84-3.71A9.7,9.7,0,0,0,53,17.59Z"/><path class="cls-1" d="M5.37,77.91H39.69c.2,4.84-1.14,9-5,12.11a19.89,19.89,0,0,1-24.8-.37,12.91,12.91,0,0,1-4.52-9.36C5.33,79.52,5.37,78.74,5.37,77.91Zm30,3.92h-26a8.63,8.63,0,0,0,3,4.77,14.85,14.85,0,0,0,9.53,3.49A14.89,14.89,0,0,0,33.06,86,8,8,0,0,0,35.35,81.83Z"/><path class="cls-1" d="M102.63,67.74c.21,4.88-1.18,9-5.08,12.16a19.87,19.87,0,0,1-24.8-.52,12.85,12.85,0,0,1-4.43-9.15c-.06-.8-.07-1.61-.11-2.49ZM72.33,71.61a8.13,8.13,0,0,0,3,4.86c4.26,3.41,9.09,4.11,14.28,2.86a12.56,12.56,0,0,0,7-4.39,6.24,6.24,0,0,0,1.45-3.33Z"/><path class="cls-1" d="M22.38,52c-3.68,6.89-7.27,13.6-10.83,20.31a2.16,2.16,0,0,1-2,1.43A1.86,1.86,0,0,1,7.83,71c.79-1.53,1.63-3,2.45-4.57L19.1,50.1a3.72,3.72,0,0,1,5.89-1,5.26,5.26,0,0,1,1.06,1.38Q31.35,60.21,36.61,70c.12.22.25.44.35.67a2,2,0,1,1-3.5,1.77q-3.6-6.56-7.17-13.14C25.14,57.17,24,55,22.89,52.87,22.76,52.64,22.61,52.41,22.38,52Z"/><path class="cls-1" d="M85.49,41.71C83,46.39,80.49,51,78,55.56c-1.2,2.23-2.36,4.49-3.56,6.72a2,2,0,0,1-2.55,1,1.9,1.9,0,0,1-1.25-2.12,3.62,3.62,0,0,1,.41-1L82,39.9a3.79,3.79,0,0,1,6.7-.09c.66,1,1.28,2.09,1.86,3.17q4.56,8.32,9.08,16.66c.13.24.28.48.39.74a2,2,0,0,1-3.51,1.73q-2.84-5.16-5.65-10.34c-1.67-3.09-3.31-6.19-5-9.29C85.83,42.23,85.68,42,85.49,41.71Z"/></svg>