<svg id="Layer_1" data-name="Layer 1" xmlns="http://www.w3.org/2000/svg" viewBox="0 0 108 108"><defs><style>.cls-1{fill:#d3a65e;}</style></defs><title>Artboard 14 copy 4</title><path class="cls-1" d="M79.45,53,61.13,40.3a10.49,10.49,0,0,0-2.51-17.23,3.74,3.74,0,0,1-2.35-3.45V12h9.08A2.41,2.41,0,0,0,67.7,9.6a2.41,2.41,0,0,0-2.35-2.35H42.49A2.41,2.41,0,0,0,40.14,9.6,2.41,2.41,0,0,0,42.49,12h9.08v7.67a8.74,8.74,0,0,0,5,7.83,5.91,5.91,0,0,1,3.29,5.32,5.72,5.72,0,0,1-2.82,4.85l-.63-.47a4.53,4.53,0,0,0-4.85,0l-.63.47a4.76,4.76,0,0,1-1.1-.78,6.05,6.05,0,0,1-1.72-4.23,2.35,2.35,0,0,0-4.7,0,10.55,10.55,0,0,0,3.13,7.52l.31.31L28.87,53H15.08v47.76H92.91V53ZM51.57,43a12.09,12.09,0,0,0,2.35.31h.16A12.09,12.09,0,0,0,56.43,43L71.15,53.14h-34ZM30.28,57.68H77.88l4.38,3H26Zm-10.49,0h2.51a2.34,2.34,0,0,0-.16,2.82l.16.16H19.78Zm0,38.37V65.35H88.22L88.37,96ZM88.37,60.66H86a2.35,2.35,0,0,0,0-3h2.35Z"/><path class="cls-1" d="M29.49,68.8a2.41,2.41,0,0,0-2.35,2.35V90.41a2.31,2.31,0,0,0,2.35,2.35,2.41,2.41,0,0,0,2.35-2.35V71.15A2.41,2.41,0,0,0,29.49,68.8Z"/><path class="cls-1" d="M41.71,68.8a2.41,2.41,0,0,0-2.35,2.35V90.41a2.31,2.31,0,0,0,2.35,2.35,2.41,2.41,0,0,0,2.35-2.35V71.15A2.41,2.41,0,0,0,41.71,68.8Z"/><path class="cls-1" d="M66.14,68.8a2.41,2.41,0,0,0-2.35,2.35V90.41a2.31,2.31,0,0,0,2.35,2.35,2.41,2.41,0,0,0,2.35-2.35V71.15A2.41,2.41,0,0,0,66.14,68.8Z"/><path class="cls-1" d="M78.19,68.8a2.41,2.41,0,0,0-2.35,2.35V90.41a2.35,2.35,0,1,0,4.7,0V71.15A2.41,2.41,0,0,0,78.19,68.8Z"/><path class="cls-1" d="M53.92,68.8a2.41,2.41,0,0,0-2.35,2.35V90.41a2.35,2.35,0,0,0,4.7,0V71.15A2.41,2.41,0,0,0,53.92,68.8Z"/></svg>